<svg xmlns="http://www.w3.org/2000/svg" xmlns:xlink="http://www.w3.org/1999/xlink" viewBox="0 0 97 35" fill="#fff" fill-rule="evenodd" stroke="#000" stroke-linecap="round" stroke-linejoin="round"><use xlink:href="#A" x=".5" y=".5"/><symbol id="A" overflow="visible"><g stroke="none" fill="#ffa61a" fill-rule="nonzero"><path d="M25.859 33.853h-3.761V16.927h3.761v1.082c.471-.662 1.684-1.299 3.012-1.299 3.597 0 5.6 2.988 5.6 6.473s-1.982 6.446-5.578 6.446c-1.329 0-2.574-.638-3.034-1.299zm0-8.65c.471.858 1.241 1.439 2.237 1.439 1.854 0 2.918-1.496 2.918-3.457 0-1.992-1.042-3.486-2.893-3.486-1.024 0-1.79.609-2.259 1.439zm21.159 3.947h-3.761v-.932c-.471.775-1.811 1.41-3.249 1.41-2.767 0-4.273-1.839-4.273-4.564v-8.138h3.292v7.446c0 1.299.65 2.186 2.006 2.186 1.051 0 2.226-.638 2.226-1.716v-7.916h3.761zm5.639 4.703h-3.29V16.927h3.292v1.082c.471-.662 1.716-1.299 3.057-1.299 3.597 0 5.623 2.988 5.623 6.473s-2.017 6.446-5.615 6.446c-1.328 0-2.596-.638-3.067-1.299zm0-8.65c.471.858 1.287 1.439 2.283 1.439 1.854 0 2.94-1.496 2.94-3.457 0-1.992-1.075-3.486-2.942-3.486-1.024 0-1.823.609-2.292 1.439zm13.636 8.65h-3.292V16.927h3.292v1.082c.471-.662 1.746-1.299 3.073-1.299 3.597 0 5.632 2.988 5.632 6.473s-2.029 6.446-5.639 6.446c-1.328 0-2.609-.638-3.079-1.299zm0-8.65c.471.858 1.303 1.439 2.299 1.439 1.854 0 2.948-1.496 2.948-3.457 0-1.992-1.087-3.486-2.942-3.486-1.024 0-1.835.609-2.305 1.439zm20.991.188c-.441 2.351-2.378 4.291-5.48 4.291-3.596 0-6.002-2.648-6.002-6.465 0-3.735 2.525-6.497 5.982-6.497 3.625 0 5.639 2.508 5.639 6.132v1.128H79.11c.123 1.881 1.162 2.961 2.682 2.961 1.165 0 2.02-.609 2.297-1.55zm-8.091-3.761h4.786c-.027-.94-.802-2.324-2.213-2.324-1.328 0-2.268.913-2.574 2.324m10.598-1.883h-1.893v-2.82h1.88v-3.292h3.292v3.292h2.82v2.82h-2.82v5.427c0 .981.483 1.41 1.368 1.41.527 0 .981-.165 1.453-.414v3.043c-.471.249-1.201.387-2.116.387-2.517 0-3.996-1.244-3.996-3.984zM16.926 9.405H9.403v7.522h7.522zM5.173 23.51H2.82v-2.351h2.351zm2.82-5.171H0v7.993h7.993z"/><path d="M9.567 11.315L4.818 6.566l1.834-1.834 4.749 4.749zm-1.65 8.849L6.083 18.33l3.759-3.759 1.834 1.834z"/><path d="M5.173 5.173H2.82V2.822h2.351zM7.993 0H0v7.993h7.993z"/></g></symbol></svg>