<svg xmlns="http://www.w3.org/2000/svg" xmlns:xlink="http://www.w3.org/1999/xlink" viewBox="0 0 91 45" fill="#fff" fill-rule="evenodd" stroke="#000" stroke-linecap="round" stroke-linejoin="round"><use xlink:href="#A" x=".5" y=".5"/><symbol id="A" overflow="visible"><g stroke="none" fill-rule="nonzero"><path d="M68.469 4.902l-.524-3.094c-.167-1-.547-1.8-.857-1.8s-.57.833-.57 1.833v.8a1.85 1.85 0 0 1-1.833 1.833h-.976v2.237h3.213c1.023 0 1.714-.8 1.547-1.8m-7.307-2.626h-10.14c-.07 0-.12 0-.167.024v-.476c0-1-.262-1.833-.57-1.833s-.7.8-.857 1.8l-.524 3.094a1.49 1.49 0 0 0 1.523 1.8h3.07c.3 0 .62-.048.857-.143a1.1 1.1 0 0 1-1.095.904h-4.284c-.7 0-1.214-.62-1.095-1.3l.428-2.594a1.11 1.11 0 0 0-1.095-1.31H25.962c-.452 0-.833.262-1.023.666l-3.997 6.118c-.07.095-.07.238.024.333l.785.928c.095.12.262.143.38.048l2.713-2.142v13.053a1.12 1.12 0 0 0 1.12 1.12h6.045a1.12 1.12 0 0 0 1.12-1.12v-4.522a1.12 1.12 0 0 1 1.12-1.12h15.063a1.12 1.12 0 0 1 1.12 1.12v4.522a1.12 1.12 0 0 0 1.12 1.12h6.04a1.12 1.12 0 0 0 1.12-1.12v-4.92h-3.213a1.85 1.85 0 0 1-1.833-1.833v-3.127a1.79 1.79 0 0 1 .738-1.452v3.737a1.85 1.85 0 0 0 1.833 1.833h4.95a1.85 1.85 0 0 0 1.833-1.833V4.14c-.024-1.023-.857-1.856-1.856-1.856" fill="#0076a8"/><g fill="#59595b"><path d="M0 27.527h6.306c3 0 5.005 1.455 5.005 4.255 0 2.293-1.565 3.66-3.087 4.145.463.375.794.904 1.058 1.455.64 1.3 1.058 2.712 2.403 2.712.33 0 .617-.1.617-.1l-.287 2.712s-.816.198-1.52.198c-1.808 0-2.844-.706-3.925-3.13-.463-1.08-1.08-3-1.918-3h-.86v6.04H0zm3.792 2.756v3.748h1.367c1.08 0 2.36-.33 2.36-1.962 0-1.345-.86-1.786-1.896-1.786z"/><path d="M16.426 27.527h3.836l5.16 15.28h-3.836l-.948-2.888h-5.116l-.926 2.888h-3.307zm0 9.6h3.285l-1.036-3.22c-.353-1.08-.53-2.624-.53-2.624h-.088s-.22 1.565-.573 2.602zm9.15-9.6h4.057l4.013 7.585c.33.66.794 1.808 1.147 2.712h.088l-.154-2.977v-7.32h3.1v15.28h-3.97l-4.167-7.563c-.375-.684-.794-1.676-1.102-2.5H28.5l.176 2.712v7.342h-3.1zm13.053 7.562c0-5.534 2.734-7.805 6.967-7.805 4.454 0 6.24 2.447 5.755 5.755l-3.528.3c.375-2.425-.573-3.395-2.293-3.395-1.654 0-3 1.213-3 5.16 0 4.167 1.455 5.225 3.1 5.225 1.565 0 2.822-.97 2.558-2.977l3.307.33c.243 3.1-1.984 5.38-6.063 5.38-4.123.022-6.813-2.425-6.813-7.982m25.873-7.553v15.302h-3.77v-6.494H56.07v6.482H52.3v-15.3h3.77v5.777h4.652v-5.777zm10.627 6.108v2.8h-5.327v3.572h6.57v2.822h-10.35V27.527h10.12v2.822h-6.34v3.286zm1.963-6.108h6.306c3 0 5.005 1.455 5.005 4.255 0 2.293-1.565 3.66-3.087 4.145.463.375.794.904 1.058 1.455.64 1.3 1.058 2.712 2.403 2.712.33 0 .617-.1.617-.1l-.3 2.712s-.816.198-1.52.198c-1.808 0-2.844-.706-3.925-3.13-.463-1.08-1.08-3-1.918-3h-.86v6.04h-3.792V27.535zm3.792 2.756v3.748h1.367c1.08 0 2.36-.33 2.36-1.962 0-1.345-.86-1.786-1.896-1.786z"/></g></g></symbol></svg>